<mxfile host="app.diagrams.net" agent="Mozilla/5.0 (X11; Ubuntu; Linux x86_64; rv:134.0) Gecko/20100101 Firefox/134.0" version="26.0.10">
  <diagram name="Page-1" id="ywkW2PkAC5P08V-XLdBi">
    <mxGraphModel dx="949" dy="548" grid="1" gridSize="10" guides="1" tooltips="1" connect="1" arrows="1" fold="1" page="1" pageScale="1" pageWidth="850" pageHeight="1100" math="0" shadow="0">
      <root>
        <mxCell id="0" />
        <mxCell id="1" parent="0" />
        <mxCell id="3556gvScZ1iog9B0t0vM-75" value="" style="verticalLabelPosition=bottom;verticalAlign=top;html=1;shape=mxgraph.basic.polygon;polyCoords=[[0,0.58],[0,0.14],[1,0.14],[1,0.75],[1,0.99],[0.63,0.99],[0.63,0.58],[0,0.58]];polyline=1;fillColor=#eeeeee;strokeColor=#36393d;" vertex="1" parent="1">
          <mxGeometry x="10" y="140" width="460" height="362" as="geometry" />
        </mxCell>
        <mxCell id="3556gvScZ1iog9B0t0vM-46" value="" style="ellipse;whiteSpace=wrap;html=1;rotation=90;fillColor=#ffcc99;strokeColor=#36393d;" vertex="1" parent="1">
          <mxGeometry x="470" y="316.5" width="150" height="103" as="geometry" />
        </mxCell>
        <mxCell id="3556gvScZ1iog9B0t0vM-2" value="" style="rounded=0;whiteSpace=wrap;html=1;rotation=90;fillColor=#ffff88;strokeColor=#36393d;" vertex="1" parent="1">
          <mxGeometry x="102" y="154" width="20" height="150" as="geometry" />
        </mxCell>
        <mxCell id="3556gvScZ1iog9B0t0vM-3" value="" style="rounded=0;whiteSpace=wrap;html=1;rotation=90;fillColor=#ffff88;strokeColor=#36393d;" vertex="1" parent="1">
          <mxGeometry x="102" y="174" width="20" height="150" as="geometry" />
        </mxCell>
        <mxCell id="3556gvScZ1iog9B0t0vM-4" value="" style="rounded=0;whiteSpace=wrap;html=1;rotation=90;fillColor=#ffff88;strokeColor=#36393d;" vertex="1" parent="1">
          <mxGeometry x="102" y="194" width="20" height="150" as="geometry" />
        </mxCell>
        <mxCell id="3556gvScZ1iog9B0t0vM-5" value="" style="rounded=0;whiteSpace=wrap;html=1;rotation=90;fillColor=#ffff88;strokeColor=#36393d;" vertex="1" parent="1">
          <mxGeometry x="102" y="214" width="20" height="150" as="geometry" />
        </mxCell>
        <mxCell id="3556gvScZ1iog9B0t0vM-34" style="edgeStyle=orthogonalEdgeStyle;rounded=0;orthogonalLoop=1;jettySize=auto;html=1;exitX=0.5;exitY=0;exitDx=0;exitDy=0;entryX=0.5;entryY=0;entryDx=0;entryDy=0;" edge="1" parent="1" source="3556gvScZ1iog9B0t0vM-6" target="3556gvScZ1iog9B0t0vM-7">
          <mxGeometry relative="1" as="geometry" />
        </mxCell>
        <mxCell id="3556gvScZ1iog9B0t0vM-6" value="" style="rounded=0;whiteSpace=wrap;html=1;rotation=90;fillColor=#ffff88;strokeColor=#36393d;" vertex="1" parent="1">
          <mxGeometry x="102" y="234" width="20" height="150" as="geometry" />
        </mxCell>
        <mxCell id="3556gvScZ1iog9B0t0vM-7" value="" style="shape=trapezoid;perimeter=trapezoidPerimeter;whiteSpace=wrap;html=1;fixedSize=1;rotation=-90;fillColor=#fff2cc;strokeColor=#d6b656;" vertex="1" parent="1">
          <mxGeometry x="307" y="274" width="90" height="70" as="geometry" />
        </mxCell>
        <mxCell id="3556gvScZ1iog9B0t0vM-17" style="edgeStyle=orthogonalEdgeStyle;rounded=0;orthogonalLoop=1;jettySize=auto;html=1;exitX=0.5;exitY=0;exitDx=0;exitDy=0;" edge="1" parent="1" source="3556gvScZ1iog9B0t0vM-8">
          <mxGeometry relative="1" as="geometry">
            <mxPoint x="317" y="436" as="targetPoint" />
          </mxGeometry>
        </mxCell>
        <mxCell id="3556gvScZ1iog9B0t0vM-8" value="" style="shape=trapezoid;perimeter=trapezoidPerimeter;whiteSpace=wrap;html=1;fixedSize=1;rotation=90;fillColor=#dae8fc;strokeColor=#6c8ebf;" vertex="1" parent="1">
          <mxGeometry x="201" y="401" width="103.5" height="70" as="geometry" />
        </mxCell>
        <mxCell id="3556gvScZ1iog9B0t0vM-16" style="edgeStyle=orthogonalEdgeStyle;rounded=0;orthogonalLoop=1;jettySize=auto;html=1;exitX=1;exitY=0.5;exitDx=0;exitDy=0;entryX=0.5;entryY=1;entryDx=0;entryDy=0;" edge="1" parent="1" source="3556gvScZ1iog9B0t0vM-10" target="3556gvScZ1iog9B0t0vM-8">
          <mxGeometry relative="1" as="geometry" />
        </mxCell>
        <mxCell id="3556gvScZ1iog9B0t0vM-10" value="" style="shape=image;verticalLabelPosition=bottom;labelBackgroundColor=default;verticalAlign=top;aspect=fixed;imageAspect=0;image=data:image/png,iVBORw0KGgoAAAANSUhEUgAAAgAAAAIACAYAAAD0eNT6AAAACXBIWXMAARlAAAEZQAGA43XUAAAgAElEQVR42u3dzZHjOpYG0I5IG2SFFl1GKGI24wNdmL0MoR/0g27QCG5yXnVI1SgkQAIkJZHSWZzon1f1UilRxEfg4uJf//N///svAOCzeBMAQAAAAAQAAEAAAAAEAABAAAAABAAAQAAAAAQAAEAAAAAEAABAAAAABAAAQAAAAAQAAEAAAAAEAABAAAAAAQAAEAAAAAEAABAAAAABAAAQAAAAAQAAEAAAAAEAABAAAAABAAAQAAAAAQAAEAAAAAEAABAAAAABAAAEAABAAAAABAAAQAAAAAQAAEAAAAAEAABAAAAABAAAQAAAAAQAAEAAAAAEAABAAAAABAAAQAAAAAQAABAAAAABAAAQAAAAAQAAEAAAAAEAABAAAAABAAAQAAAAAQAAEAAAAAEAABAAAAABAAAQAAAAAQAAEAAAQADwJgCAAAAACAAAgAAAAAgAAIAAAAAIAACAAAAACAAAgAAAAAgAAIAAAAAIAACAAAAACAAAgAAAAAgAAIA3AQAEAABAAAAABAAAQAAAAAQAAEAAAAAEAABAAAAABAAAQAAAAAQAAEAAAAAEAABAAAAABAAAQAAAAAQAABAAAAABAAAQAAAAAQAAEAAAAAEAABAAAAABAAAQAAAAAQAAEAAAAAEAABAAAAABAAAQAAAAAQAAEAAAQAAAAAQAAEAAAAAEAABAAAAABAAAQAAAAAQAAEAAAAAEAABAAAAABAAAQAAAAAQAAEAAAAAEAABAAAAAAQAAEAAAAAEAABAAAAABAAAQAAAAAQAAEAAAAAEAABAAAAABAAAQAAAAAQAAEAAAAAEAABAAAAABAAAEAG8CAAgAAIAAAAAIAACAAAAACAAAgAAAAAgAAIAAAAAIAACAAAAACAAAgAAAAAgAAIAAAAAIAACAAAAAeBMAQAAAAAQAAN7ev//979M/Lt4LAQCAzwoA51+/fl1v//3LeyIAAPDeA//X7T8vAoAAAMCHBYB/Bv/mH60AIAAA8FkB4CoACAAAfF4AaP/RCQACAMAmhWW/GVQOEQC6kgAQLhncdw34bAUAAIVlB/XP59RXBoDOkoEAADAVAAwSxwgAQ80SQGlgQAAAPrey3CCxj6WYqaf60z+f01j6Wf3+57c/33t/BQCAXADoBYCXP91fU+9/MFPzuwnQ91wASPz5wecqAADkAsDgPXntZ/F7GWYmAFzCAFC4tHMPACfvswAAkNpbfsinxN+v+ehPt/ff4ffAPhUAbkGtOADcPtfff/7bLg8BACA7UBzxKfFdeuPf1vfnAsC1MgC0QQCwFVAAAMgGgFVPiXNFbA9cvjj0DobbDMDvINPPBIA2FQDivxP8+f4eAH6/TwKAAACQCwCrnhJvTWeeHQAO3RkvWq8fgv/9ldnT/11S1X9bUhiCAKDPgwAAkH2yXPSUGKxhX18QALoj72CIAsA49TsET/R9PHsQB4fbjMIYBAB9HgQAgGwAuOaePgvXsNtnDzC3QXG3AeD3wF7asjcMAPFySvRE30fv+xCHt2AHwDhXNxC2gkYAAD4rAHRrp4mnitgeXDk/7LnRzS0UnWoLMcO/d/tdT5kAcE494Qc7Bu4BoJ+oFXDCoAAAbDWoHkkQANrEDMClZHfAbYDqn/n7337m984DQDf1dB3PwgQBoA//XjDQ/zWYBwN9H26JDGZ1xlwvgOjPagQlAACfFliCANCl1pFLigOnqtgfvG7+/ezgURkAhqn3byIA/Pl70e/6V2e/YGvgGAaG4DMdU/888flrBCUAAGueSMOb9oFmAP4qLksMLs3cAHYLAE/pOJd7+t1rAJhaWomXYW7X0Fe4rh/9rnEAaFNb/aItgJO9AG5/dtQtUAAA1m2n6w8cAP7qBhg8RZYEgMsLAsB1761ubwP57Pr6/TMIAsBfNRlhV7/w9w0+o3AJ5xTtALjPBDSpIs97bYFugQIAsG4t/VBPUlF1+RgUnoWDyLUwAMz+7veCto1rF/YeAOYO7zmFg3BQ29CGxYRxAEg86feJ5YLvqc8x/Jx1CxQA4K2f0m83x827osU38SPcSKNK+r/WiaMp57ZgCruZCwDBnvVNBppg8KsOXcFrOT8hXPUz12MbDMJhAOgSYScMAD+e9G//X7wDYIw/xzi4bdEt8B5K3G8EANjznvfNOscljl491JNUtL3sz2vPTC3P9qnPDcRbB7DE6z4vuBauj2yRGwSAuQr87ygAnOPdDdGT/j0AnON1/ntjpMwMQJcJAJs0C5rb8ogAAHvY894/4N/bHLHtauIpsrkNXOH/11UEgOTsRzTgrOk3kOx0VzPrEg2+jwwA2VmhRA+GVAAYoqLAv4oAE1P9U8a4g2Diuu1Sr7FmJskyggAAey942+zo20w1dnugABC3jO0Se8i7in3sJQGg3SAAXKKB87IgAPRPDABTFfi5ADAGSwLhZzTeBtx4qn/OkAgg11R/gRU9GRw6JABA+TTsM9qQBk8pD9nyFE27dgeqiTjPDCDj1IxJbQC4DVrd2gAQ7n9fsuwSb7V7dAAIZz3CQTisv7j/HuGT/e1/x1P94+3ffV0QAE6ZGYj4n59LtrQmlsAcOiQAQFWntKdMG0YVz5sV6sXr0UfYCpiqXZgw+2QY7GN/VgBoVwaAhz+xRtdFG/z+bea6+REAbksyl0RTn1Oi2c/sMkD8+UTBNSwCbUuCbGJGRkthAQD2s274qEK9iYNXhr0XQ2WKwHIzAENBAOin3tcoAPQbzBzFg1/RQJ64Fh4ZAMLZlT543UMufN2LJMN6klRV/73zYkUNwI/rPtpGOEZFoENJd8BELUEnAAgA8NCb8JI/Gw12160CQGIqdtz7VsCKAPC9cQC4rm07mxq4agNAMGA9KwCMt999DALApSAA9NE0/f36usSzBwVB7jvsLhjNQPzpFRAVIX5Vfgd6g78AADWDT/VN+DY1eqocqMMnqXbDAPBjKnbv1dCZKvCpqeNTSTOh0gCwotjsKyqKG2sCXU2b4wfWV6SK+MZEABgzA/l477uwIABcJwpAv+99C0pnshJLMoOtgALA025gHLoAsFn6NF6z5zhT8dxt9bvE66hHqIaeODZ2cu24YK27KQgAi4owM3ULSwNAu8URyKnfY6K+Ypxo2PPnuiko7hujXSc1AaANXueltmZgrgZk7lpBAODDw9Dam/B90C290WQqnvsNn/KyN9o3CQCTxX3RE/lcAGinGgYtmLVY9H4Hoa06AESvI9Ved7bA8vbPrisCwFi7/p/oLtgUBIBLYQDoj9gISwA4bvV4Y6ppN/vIFz1FTZ1DX1JdXfukkeqmtrR4seAm2h0kAFwLA8BlZqCrDQDnjV5zdQCItt+tCQDX1OdcUl8RtABOBYC2srq/Rl/42Rfvrkg0KtILQAA4fvX4gd6Lp4ehVFX3gs5h/YoAMNZ2f4tuUuPCQeiSOaQlvon2B5mF2SIAzBZXJo69Pa8YeNslASATWK4rX8dQWWA5BtX9XWrp6MEBIDxJsJ0LAHODeWIGSC8AAWC/1eNvXEj31C9dfBOs/bnRTaNb8vlXdn9LHZyypHvc/dCb1LLC99oZhhcuw8wNNs3GAWBxeM/UXHQVAWDVbpDodxnj5jqFOyz6OJAmgsEjAkC4178rCAAlJ0Gej7T8JQDs4Kn1iIPezp/gnrr9JnFDPy38DIufluO/Wzo9OVE41iwIANegZevXxFasXW0FnJuSn1lvngwAJecgJALToq2fqZmc0hC59bkNudmMyi2WczMDjwgAl0SQ+q6tZZnog9EbtAWAqSex60aDngAQ3CxesSQS3wQX3oT7hX+3WfjUVz39m1jDvszd4Pe0RBXvmlgQAK4TAeCaG1ATNRPdkn37M1vXiq6hrc9tCAbQ5v4+hO1zFwaA9sEBIG72szoAJApJB0//AsDUk1i/URvQj55qSmxBe+r7UbL/u/AmPCx5Cq8JAJktV9XvV/B+dxM36t1sBYyempt4UC6Ybq4NAG3in10T12v1zo+ZdfV+SWheGQD+KiQM+0vU7LBIBID+UU//Eyc+fs8dIVzw+Y8lfSP44ABw/1KsuUDCm/CH10TE69rPXgY4LR3scoeQbD0DNPOkW128WNh9bVdroUHf++tEAKj+XUqeqMPjl2sDwP3I28Jti31FMejq0Bz1PuiDa7JbGADC0xgfHQCuwTUxu2tgyXfLVkABYHYKdYsv3ocXAJ5fMe28RTV14hCS04IZoJoAkHrS7SvXoM+VT3Mv3QqYuE66RADoNwgA3UQA+HP6Yu3Oj2C28BQM3rldC0VtaxMH8FQHgEzl+xhcU6eFAWC8nxXw4ADQVixP9NFyznnmuzXaCigAlKTvpVOA59qp4w/opPfUp87Mz6/Zh33Kbckr+ftL+gdkBrqq4FG5pvvyYqjEd6YvfF++54rs7kWQiQDQRdfIkCma7Eqry8NBZ2LJYqgsBh0XbkEtafN7WjED0D8wAIQ/o12wbfCaKnrM7MqwFVAAmEzNi7548aD3rmtNhU+117VPtRsVY1ZVYWdmLs4LBvO2cBo5O3Vf8nNru+btZStgIrj8eD0V081dFOSvmX9Hl2sRnAoANbs9poJcfC+Iiw8nPsOlAeBSUGR3XRAAhgdt/9ti22CfOE/glNmVkZoxOoefJR8SANZs/Zob9PZ+6tojOh3OFXA963jd6CmiXxDiqtcMS58iS6fua7YSLrmhv7Iveio0R1XqXxVPm310028za+pd5n1vo8KzvuL9bjKDTXY2595QJ7HkcV0SACa2+I25ngkLA8Du3Abu80TIG6c6YUb3C8cFf2oAiJ4Yq56OcoPeOxab3G6U3dz7k3gaGtcsryzdArji6NCxtuVoTQOhmZ7sRe/V/QZ2+0zaBQHgZddn5nvXTDy9lQaAczBwxv+OOACEM1OXcKvYglqPc+mBRXF/ionQ3K2ciRxz19S7BIDb79Fm6gLOBdfLj4JQPjMArB68l54DfsDq/mHmCNapm3f/pFmKvqa17kwr19mWo4mnyn7BstHimonK6uyXX59TVfoLAsAQfQZd5t/RZ/bBj9GfGwpmuOLtvlNP3X/NBt4/q8Qugn5JB8F75XxwLVwnAkD3ZgHgx+8ZvNeXkuWvYLZJj4BPLQIMbgCLOrFFN5u3KzaJphfHyqNGl6xtn+9bmJaGlJKn3fh/LykaWrKMNDN1PxYUo52D3+lUWZw1u3/+RQGgn6hkL6pnuF83meWVvrBmYqiY4epLBtTosxpn1qtrAsA57KBX0ECpf8MAkKtzaEpmZILrZNAj4DOLAMMbxdL1t8vRjl3duldCwc21OBiFT0OltRSZJ/HiQDdRNFQUAKIbzrCiB0C2aDKasRpm1jprG6mcao4y3rpbZGIgH2uLwW7fwz4TRItPm5u65qL6hKGka2EQAC4FSxJjxW6ES7x8MtNAqej1HnwmYHaZI9cV8V3rtgSA+sG7qxl0MoNe94YBoC0IAHNPF33h55EMUrkzG0pb60Z/7jpRkFcU5CbqSJb2AMg+icY7B0ra/k7cLPvMWQKXtWdjLF02C27A54rfIw4AQ64PfGmb4dRAEAWlvzrLFTQtaqZC4tQ9qPC+cy0MAN/3Qsk3DgBdwWfcJJZMNAn6xACwZstaSTe3uW1gR6yVmAkAsyeGTd1gE+9l+GR4f0q/FhwAM9la9zb49BP90dcEgOwySdQ8pi8tHsvMcAwr9mYP0aA2PLM2IPr945maS201ePDZ5wLAUHqNzhwxHIeTdmoHQBQA2sw2tmvimu0q7jtdaT3I/djod10CuN+7M5/xmAhM7dTJkrx/AOjmbr4Ln+SGmYMq2qN0DIyePCd7HBSe5JU7mS23nt1GN8rk0/FEoOvm9p+n+oaXzORk1rNzg3c4RT27dp96Gs80WVq7j7pJ3ARPtxmGR23ZTK17twsDQLi/fZw4COY0c40mi4DDTnMLD9JpMveJZqL4tCuYQenCQW8mVP75mW8eAO6/41DSPCp6vzQJ+rRdALkvTOX+7750Cjex7nSIaaewU9lElXRpQVpfURUf9iIfcu/bXGvdzGAdDgq5m2JRX/4oSP61jpxaQpnpef6jdmHNnv+C3uvDxF7xhzwVxVPpUdi61PwecYObzPtUHADi3/l27V9XHKRzzRQbtxOvpy+47wzhd3LuGOhgxuLdA8BYcv/Zov1y6rr+pADxDj3rx6l1u8r930UV79Fgsetpp9Ta/ESwOS8o3PrKvC+LDrSZC2Pxk2fwFNxNBYC5HgXxz00Fu2AL2Hlu7/iKQ3Jqb5RDJhQ8pJh15loZlgSA+Ek605t/CILXUDNDdZ82XxDAcu/pd1B5fkm8nnGuIVH8e9yuqZKC0P6Bh/ocJRwMmfbLXUm9UcGs1secBvtOBYCL1n5LWm8mis8Os10w9eQ5Mf3eLN2GVln5na2Sz0395aZwgwAwlBw6ElbMh+FtbutheMO+b+NbEnKecPMeUg10HhAALhNFaqVP2fETdhgA2tRRsDODZPLavL2errTGJRMAck2ftiqWbSpO0vt04+0aaXKForfPa6g82Ov6aYfBvWMBYFU3t5lmLs3EU+7RAkBbEABqno66rdrZZiq04y/8JdP0ae7JaUh0bbtGv8NprpdENOA1hb9vX/j7PTQQbLk/ei4s3t6npQGgm6h0vweAc23wun1W/YqmS+2CpYO+cufRtWIG7uPdu0ZOLBN1NY3EEksyZwHgYB0A507xuj9BFOwAmJpKPFy/gLhieyIA1KwtjqkOabXFPjWtdVP7rW+FbufSATAa7Id7gdhc74G4613hezVEleiXF63dXm+6tWFgIvCNwc+qDQBtvMSS+m7fCxtreyTcK/1nZoq+Z+pXapduUjNc52DGKr5+uoVbQj9V7nTDJnH9NRU9Gd62Ffzb7QIo2IYV3/j72035PLNunXuS6HLVvkFv99MO36sfe59Ta2QLBvEuelpb1cxmZglizDUFmRlw4l7uzcyBJLkA0C84WW2Itg02v15XvLU4sIY3yYIT6bqKIFkdAAqukdR11d0/i4UBYFzwmfXxNsRw62piC2VfuATHhtf8xMPkVQDY8fG1JdOpUYvNa6Ja9FS63WRijTvuULablpS5mYvMHvc1N8c109NfM33Q527Cs9PxU+e+R814xolWr+PSqcrCNq9PP4Z14TJSP/O71AyWcfOXIQh1fWbat3rpJQz+T3zv++jaDsNfl3gdw4IgzcLZmIotrQLAgQoAs1P4qSKvKBR8zwzu2RtesDa5q4OEcnvPg6fSS6bN6dN7fy9ZggimnLvC/fjnzJR13MhljI58Xdqtr+TM+Ze1W11wUl0bDMT9hq+ni6bnm7UBIBp874WRzasGnYLiw/HDq/ufEnozzceutY3gBIAn7l+PT38qfFosOe1rLBmgCm4c/db7UR94aEu853jIbLt66mC0oEK7eDp+Ztp6zJwh0K58co8H26UzLA8ZnFZeR8PG10kXzbIkG8FkCr/mll5Owevtnvge5zo18qLmQqm+IxOfzWAb4H6e8ttcU5aCG8F55Rd/8ZRmXHj4wtMS+4ktNFMFNc8IAf3KQsLiL3/hvz/Vbaz7tX798bz3J6KVhx+tfVo+R7MyQyaMd5UB4JnT/nGPgNMrZ9eYDPRt1HJ41XdEAHhwlX+8blkxWDz7ifbP6031vn/2xZQ6JS+zz/pVhoIuaKufMAuWe3LbHJeu/8fT283ObojXnQWAS/R55eo9+sqAc37ldf3Gp/cdrg5g4uTG2T4wAsBrKteHuM/zQabU7tPK/auWBCa21o1Bk4y9DEbNjp6Qx+iGcdnixvNrf2e4d2sC+QO2dDWFBZ9FwX9h7//NlwAeHGypP2OgJIx9zE6AQ7SujdctDzSlFm9z6sIg8+QCwDGqQt7T+zTssABqq4F7iI6c3UsAqN4N8MDfYYhmaMaJfgZDYQC4LOj9/4gAYPp/X/fjsfa+vect3m8bADKdwM4v/lIvDgDRDe7hyXLjw2c+tt/4BsFk/DV95OxuCqNeHABKtsB1pT+7oF/Bs9rVmv4/+LJBeFLlrzc7cni3LywuXEs8SR8xeY65ApPU9pQndEtkelBqNnrf9vrex02sJmtUHvi9Gx8QkJoXr7+Pv/LH2nKQe0CiPmnqlNgvAWC7o2tzDUa6NxjMxvjmWzL4115oth+97cC9aU/1YFltmKp8Psg+9eT5Ai/uvsix6waKWwsLAI9Zt37XL9Q1Cj337Xhtrl1vyXto+xGVe/DD7VDtmwUAzXXYum6gT4xX/RF3Dexi0I+O2/064BT/2groNnWRJc4y6FIXWtTU4t73/PJh7yPb3OSybVMPFgDaFYf/QFGNSTxbfbQQsJf1/m6H+6VfefMKb8aXqDd66VHFph9ZNF2duokdaDnpTwC4PUz4HvCo+oDJI4kFgPqe/v2HfmHHBU9qfypSVfuz8XXYJTpvNkf7HXbWfZEP6zoYztC+ogncIQKAgWuTJQTrnDxki+AT2jQ/srZBDQyvXiL4MgNgmxoc8Wmm3eAsjVe99v5Xfftn2HKJ4BJsRe32eLbAq6f/bVODYyxNHS2gD7/MjLGPIBo2h7q86lyYXQSATNEaoA8CvOt3Z4xDQLwT7m0CQNxZLNXs5pcWmQB8aKHg1FkcU+PnYWcAblP+jak5AISB/8yCN/fj4589E/DITn73A3DaexGE9X4ASM583+tWush/ClofUUCosh8AXhcExpreHO8QAAQDAASANwwAlgAAYP0SQHeIJQBFgACwrAjwmTsA9rINEAA+STvVGfAttwFqBAQaAcEHf5fevxGQVsDAi2kFzB6K+7QCtmUQDukanXl+JA4D4qUB1GFAjgN+1o3Okw5bcxwwLOQ44PJlgEs0mI0fOl1Uu2d0DG/SghQbXoddPE15271zqN/hNnvhc+XZ114bjXFfe5ny300ACN33Oh7sRvOMC6n/HZBuIalPPaFliiqFADZ9ejlQvU542MqX7wIPnOIPl8fG4P8/7fmpf3cBIE5HM7sD3u0L3d8uovjm2ocX0u0G3N2nNuOEGf2Z+8VplwW1M0t97knlaAHgQK+Z44bkc3iNHWXqf5cBIDHd+O7p/Rq8B+dbGBhuTy+nVDiam0q6/fNTYnkFcmvlX0FYbHM3sIPUAYzhd0t9DBuG4z8PZ4nOt/3RBv/dBIDEIHbODP73zknjwS+o5Dpr6qk+UzfxVdF50ROQffDZ3y+oTL7cZ47eLAC8clnM8sMbFMMmHkibuXu0ALC+LqCfmNbrDpoix8SN9yux3vplm+Uu9pE3b/6+dTVFSg/+3m0dVJtgC9Yrrv/xdv0I4Mde5z/dZsiG3Bp/7YOZAFA2cLWJDkrngy0R/Aku0Z7k66MvGNss13/5N3zqve50IGhqbmAPDJNDYa+B4tm/YA/2q67/MWp57vt3wPqsaJfVOPX0f0S7DQDB+vUYfxgHWttOzVxcnxyk4rA07nAGZY9d2/qNBpAhKM7c00DwJ1BX7tZ5VAC4bhmkggDwqoeF4Tarog5n3+v5Ndv5Tu8w6B9iCSCxfn092Np2OKi1z54qCn7WOXXj38n792dNbYd7tvuNwma/05mYfkfLSX20/Td3o25Kg2JU2/Cq6eOvaPqY16/nl8zIjM+aqRUACm848dNKxRPj+KqnqyCoXF/V/zkRlvY0NTneXs/pwTfK7ld9W9gueP/GFeFmb/0tqm9uE8tymwWAaKDuVgaAsMbm/MIAcHpxHQI/A/25dGw4YlX/WwWA4KbQJjqTlXypttgPP/6q69T356Z/H0BePXX06+eBFF/RgNS/8Cmlf0K72aYiNP74DBdeP/E04p5mOMaavuRPCgDhzp/kVP/tftAVfu9PMzuKnhYALAPsZxk2uI7baPvrqu+IAPDALYFRQ5yS4rb45rv4C3j7u03BFGY4uLR7uHASN+7vxBP3cPvvz56iHuOlnYVTzENpks/8jkM8Q5K5YdS+rvhJey/LVmPN9H/mOho2vk66aKalyQSAc0XwP0Xv+zNrX8b798p23N2EgGTx3sRnM7zzwH+YAFB4hsDsNGf8Id/+/rXgyWTu6ec+oJ5L9om+KAA08eu9v4fBNNdLnlLCs7ErB9rwabGr6No1Jv7+NTHb064sOh0Tv19/tOn/VAAImlZt2hMj+I4mp/pvP7ckqPZRZ9Eh2Nb5tJmtyjbdo6ZFz53xmnmY7N998D/KDMBXrttdzRpONNi3M+kvNZWfm0rsowtpN72gM2FpTL2+FU8p48pp0q+VBxo1c38vrB+Jb8TBWQtxALjWXGtzxWg7Wguurv6PAkA/F4iXLpndr7/M2Rfft8+hKABEr7sPlgPHFwWAZqaZWelWSFZ+FpmxZJjaASAA7DAYzCTmMdFLvw+7nU2s7yYvgmjwGDPNVE473VExJmYA4jMY+oVTt+2aJ7/CE+eSA0u0RDPODXjxz7gtMaUKg5rEIPJdOQX+VxjcSf+K6htbGCQL9td3FUEn3ibbB0/6P56Yb9das+C66oLtmEtD7rhm0AnuV310PY2ZnRBsvP4/1bkvcb1dBYCdzwrMTKsNqfWecPCbeJJJXgTxk/RRkmIUlsZcJ6vaKfhwWm3h9GUzs2Xxr88iNVDfBqVz6SAcDQL3rVqppYFmoo6irViL/tpB/4r7Mke3NqBOTJuGSyrNowJA4dJfl/jshhWHA3UL6gf6xP3nHDQzi6+fTrFg9dbRYavWvXHfmU/YAfAOAeA6MXh3C9bHv+cunKMlxdTgPhEAaqbgu7UdBxPtkE8T0/iXzBT+eWaKfkiEvmtiq98w9dlHN+dmyVT0mqWELarRH1hXUjMjM9u3P5pVGhO1NlVPfLfPql8wyxV28qydvekrG3Rdd9gLY7fmjuKd2kI+8ZA0LF0mEwD2UwhY9GReUkwYpsCJDoVHCQDXggDQVNwUr4mn93HNFOlEL4Ah19gleKIa5n5ONBD34SCfKhJN/J0hCB2XJVOPTyj0inc1dFv2oJj73s+ZuxIAABHSSURBVETT9LUB4F5k+DURAE4zhXQ/rs3b6+kW7DQpGZzHmp0WE/eR5va7GeDL2yzH11kf3Y+Gkvtz4h7Zf8IOgHcIAFODTlEl/sxTZ3IfaDQd2BwhAIQ3nInDLM4VX8DzxOzI4nW5zACZ2tYVnw+Ru7H3JcWl8c9NTQGGU9SFT6LXRP+KbuM1ziExWJ0etUQ1c60MlUsd46/EwT2ZbalDEACGynB6CZYZrgsDQOo+MdxPUazttBj/HgUzWbktxx97TkdwDSaXfmpDb/CZfEQB4OGLAKfWnkvWcCb+HePMQHk5Wreo8MuSmxIuLJL68XRTOIPQRTe8S6o9cmYg73P70We6rY3x3y086e6vgJPYBneaeVr7sYyw8eFM8cA0JJoeXR8VUBM7I+IbcFUAiAsLM+9T+Fn3pe97cO1fFxRixjMUw1TtQmqJrGLKea4b5lhZf/IOxXuT95/Etb964L5/Dp/w9H/4ADBVxV+67jMx6AwzVaPtkaaKgpvLOLUmPLezYmrZYyJAxE9fQ2UdQpcJYOGgkCtK60qWghLNks6Z4NeXhqXUEtKGld6p0zHDwe90K5D8etD1NLV16lK5nhsGgDEzUBcHgFS4XHg2QDxD0U3NXKR2BxWGzn7ugSZqkvTuAaAp3Z4dvV+bLMcKAMcvBOw3aHHav8uFEgedTB+A0gNf5ppqZAtzgrX368Tfb3JNeRLT8VMnRFbVgkR9IiZnSSq2oZ5nlq2GFR3icp3mqo743Wj2LX7yrg0AYZAZMmvkQ+k1mpqVm1i6aAueupupkJhpJNVV3He60hqR+3LGGweAfuIzTjV4a4+yHCsAPKHJTclTX0FFbvG/42ABoC0IAHNT1LXFTW3JutzM53nNFGNeJxo1rQkAQ2HR0Nw21NPU1G/UhGjxGQrh60/NOjzhjIkxqpk5L5nJuK+n544DL92uOhVQUz0xCuoymsRMy1ByDyq875S2wx4zOyTeadq/K/iMm0TzsI/ZuicA/FzbHpfszT/6/v6lW7dmAkAz0eGtaJot6jlwLnkizTwhZ7djFiw/FL3ezNR8aQCYukml9oH/1Zhm4dbAXMHT6X6ozouW35YewBPv8OgzIaIvPQdk6hCXaJ19KAwUqXbZXaK+pughJHHfaQoDQNHrPXgAuM59xmF77age6ywAfF4A+Jrbw71wPfP6bgHg9mUZpwLA3NNbyZcs6BVf/R6m1tZzyX6mkr8qAEQ3937F8lPJAHAOfqfa7nTZ3+tZ12qmbqIv2VlTcHJfnwkRfUFILep7EFwnfcmsV/RZ/TjEKnP/6Aq/J2PFeRh94Szdkff3X2ZqZeKltXNw+NLJoP5BASA3FVs7FTSznvk2afJ+o5r6oswMSE85ICNxfPF5QS1H0eeYmXnoK5eOvtfMIC1sTvOy6zPXHXHhuRJD9BnkmjPl6j3G6GcNFQWfbWa5IRt6g62gl0yr6JoA8HXbyTF3HkY8Pf6uAWAsKNaMO3v+daqpQf0zA8B1aeezrULEUZS0g81si1x8ityS11hzLGfmibzqc4ye7rrCGZXz0hP3UtsLK7soXnYQAK6pddnKANBHT3O5g7q6TADo7zNb0R7xr4IAcC2Y9RpTZ4ckukt2S+qQJnaJjEumxw/mGs8iFcxE9pl7d29A/9AAUDN9Wzqd+67rSfeOY0uK2x496MxNLS8p5qzsBzFUFpGeayrRVxReTp4yuIdjpqN12a+FAeAUzpxEQTR3Mmd7+7OzszeJ190UBJYx2vnRhK9x4jOsrUP6KpiNaN4pACQaanUFJ3B2mQDdveP9WgCoP+2uXfKUGk3njp+4nrTF1soHPFl2FUHwvKRmITHzUXzzzg0chbUSJWvaD+/vv0Hw/vF6KpY1unhKPPPv6DIzDE0qvJW87mjtvS88VfSrYPvq4vtQSWvyhQFg2FlgCLdR9jN1FZPva1hTw2cGgK/4IlrwxTvXTDu/eQBoXrErIvPziwfj1E2jMgB0pT8zc0xw1QBdctN/ZS1GxXemX1DXkFxuud3MUzNR8eFT4bkMRbM38evOHAs+zp0qOvNerA0A56ktgAsD4zhxet7WJ/S1tSE22MJ6nvhufdQxvQLA8j3ui6apo8Gj/+QAkHmSvjwrAEQ3waovfKKA8LRg6aHmAJFu7WxJxba56vXlJ10nqWnZ0gDQTjSF6nJB8PbvD1vo9hXh7b5l8jRTfFf8MLBVW9qJqe9+RQD40Yr7QVv42oow26c6NU58t962OFsAePAe9wXV590nXxSJm1n/zC1m0U2wqQwA3dIn8WAQqAkA7dzZBZVbWRcfpPSi62TpoUclAaCdCABd+D7XzADe2yQXLsP0hbNPcc1Cu8WDSHx09YoZgO6BhwjFZ1PU1n58lX63NPsRAKaeRhYNVBPbg74+NABscjPb4udXVPGnBo2hsiV08QE6ta2La8LnxOC5q6egILg0EwGg6ujeiVqQNvHPrhsuAV6WLreUzFhUPogMUdX/GG6zXHigUfuEANBEBZk1jay+CmqRRnv9BYCpp8brRsVnH7vOlLqZvSJ1h0fvrqgf6Bf+3eIAMNe6eMkSVkEzpsuOAkAbF8kVbm2sDQDXqZbSwfXa1ATGmWWYsTIAhL/zmgDQx1X/ue53lQGge3ANQBMFmEWzWBOzMvb6CwDb7ztP3MwFgP/efJ9aD1FycNHWW0Jz1eGVxV+LntATvfzPc8fC7mmLamIbW20AaCYCQDN30lsisC6aHUm852PtLpSS11uzjJVro70wAFwfHQASVf2rAkDqPAiDtgDwyABw/vRCk1eHoWgAGVYWUXVLPv+aZYdU0VbNE3o0eIwFa+i7bnm6oLlRNgBEA11RAFgzO5KpOu8WzgYtaYMd/i5j3GyoMAD0uTMxCpZlttrWN3mg0dz7s9XOCj4sAGy1pqnQ5L9NT5492EQDYr/kJlq7nz8ODzVP2KknxyVNesIueDMDaH+wGaSxdjljZQA4rxh42yX1HFvsXkmF38p6hdyT/p+ZlgcfIhRu62sLAkDJMlu8LGMLoADw+IFHoclrv2T3bUFLZmJuA3K3IgAMtQN49OS4ZNbiK7Gm3Uw1ztnrTXDjAHCeGzASNRTnjV7zuKAPxVdcwLcwAFxTn3Nps6DcmRgPDgDFpzXWLLNF4doWQAGADwoBXyuf5KorwmuO1M1M1/dL3rv4900UAh5iGrS2u+HM0b1LAsBpg9e8+P1euhsh8TquM8Eo+35mgkxTGMqWhoOuILxWL5OF4drMrADw1oMemw8+1TfhuKr9Ea2LS8NAZk26eaMAMLlcErf8nQkA16XbxGYKOq+lMwBrwmeiT0HNkd3hPvlTZmtqSQAYKzr5JYNSYZFi8TJbWE/wyvMvBAA4XgFjsyAANAsCQLNlz4SpvfR7fwqaOSp5ss/+1BRw7veOAsCw8n0PCzqXBoDro4JaYbvgr1QAuH0nmoIA0FTOAoyJPv6p1zcEgXa2kDURqAZLswIAPHQ3x5I/G21Xum4YAFKNUM5HCACFW9WG0ing0gCw4azLuKSvQE0viRWv9RwFlevtP4fcex8FgPtugS4RIC6VLYPHmeOgwy6B5xVHfPdmZwUA2M1ujtSU7BY/c2If9O6fgl4YAJo1OyQmZl2qAsAzthJHAaAPXveQqxFIBIBrYkZgvHdUXdAD4DIVpIKTDIeSoJYIVI77FQCg+MbRP2u6PJw63uoJPXO6YX/AWZiiyvHapjiZgWLxIJHrX1B7DQW98B8SABLXRRv8/m3iCfw76DAZhrImETDH29+t7hcwd5Jf0COgrTzi+6IHgAAA1dPnzyoaCp54Nu1VnigE7A4WAOYGkL50QH5iALiuDAA/zkd4UOAccgcxRdvnxlQAyLScvgeAa2UAGOKmRblDuW6dLi8LgqQeAAIA7NO9A9tWN6iSE/F2HgTiANAl9qF3WwWA+/73tQEgfipe2NWxf1YAyL2+xBT8Oeysd/vfcRfLVBHhd81STmZnzOJD2h49oyIAeBNgi4G623KKfuv+8i94X+LBJXVSXDfRA+DHGQkFAeC6QQA4R7suzgsCQPvEAJA8LyCexo8CwHDbahg32hlug+6ltgnQzHWbPflvL/U8AgCw9kl9s0KlRxUYPjkADPFrLz0yNxEATgVP7qsH3cTrPi+4Fq4PDgD3gftHUehELUMYAPpUo50gGKTqN7pEceCP8xICly1mrlInTiIAwB6r3h+x9zv7tHeEnRiJIrCmMgA0JbUV4dry2vcnnD5f2Fjo/Mj6k+C97WeuxzYKAKdE174uEQBSB1ydUrsG4s+xpo1zZWMkT/4CAHxkfUG3dYHhowf/RAA4JZYGSk6Eu5Q0DLqvF2/4fu962+XtPZyccYrDYxAAUodOxUsDfaK99aXkZL/4lEzT9wIAsK4yvT9gcOlT+/2DAbYpDABPGYgTBWx7DgBDydR60EfhPrD/1bUvKtYLT/RLLdWcMoWBySOdjzhzJQAAe3uaPpVsndpxAOgzA2zpkbDPDgDN3rvP3QbX2RmUoI/CKbVFMVqSGTK7T5rMttTvgp0Io/V7AQD4zKWLVBX4+d52tjAAPGUgTmwF3HMAmGx0lTslMayoT0zrD6l+CGE9Q6JJUPaQnrA7IQIAsHJwOmgAaBNTxJeSJ8PbtPPTBuJo73m/59mVmZMUcwHgr78XVfz3uVmQ3O6Cgp0I/VGvXwEAYF1vhO+ps+0LA0D3zAFkqsp+RwGgnSuMTG2jjP9etO2xTwSDNrM8MuZmSaKfrYWvAAB8aG+ELQJA+4IA0O/56fU2g/JVWM8whssv0edwims1ohDUZJZHSro5np/VjhsBANhnAFi8D/w2EF2fuQQQzF4cdvo6sY1ydqdAHADCsDBxxoMnfAEAIDv9fFkZAJoXBID2yEfQJrZRfuVmYYKlmj7VXyGzPPLtkB4BAGAuAKzaBx5PWz9xK+Dhn26ndlEkZmq6qcLTzFG/DukRAACmC9AO9jtcjj64BTsaupLzFuaOm071CNDlTwAAyA0sw5EH0Df4LEoCQFMZAK5LTktEAAA+JwA0R24E8y6DWm4XRaKyvygABH9+0OVPAADIBQCNYF4fAK4zAeCc6thY8OcHn6sAAJALAJ0A8PpCwJmeAaeS0wXDnQG3P997fwUAgNxUsX3ix5glGGrC2m0ngHAnAABkA4B94scIAH3pDEDQO0C4EwAA0lPLWsEeZrmmqwwAjS2AAgDA5Hqx9+IQAaA1pS8AAPB5AcDJfQIAAB+6Y0MAEAAAULCJAADAu9dqnAUAAQCAz9yxcfFeCAAAgAAAAAgAAIAAAAAIAACAAAAACAAAgAAAAAgAAIAAAAAIAACAAAAACAAAgAAAAAgAAIAAAAACgDcBAAQAAEAAAAAEAABAAAAABAAAQAAAAAQAAEAAAAAEAABAAAAABAAAQAAAAAQAAEAAAAAEAABAAAAABAAAEAAAAAEAABAAAAABAAAQAAAAAQAAEAAAAAEAABAAAAABAAAQAAAAAQAAEAAAAAEAABAAAAABAAAQAABAAAAABAAAQAAAAAQAAEAAAAAEAABAAAAABAAAQAAAAAQAAEAAAAAEAABAAAAABAAAQAAAAAQAAEAAAAABAAAQAAAAAQAAEAAAAAEAABAAAAABAAAQAAAAAQAAEAAAAAEAABAAAAABAAAQAAAAAQAAEAAAAAEAAAQAAEAAAAAEAABAAAAABAAAQAAAAAQAAEAAAAAEAABAAAAABAAAQAAAAAQAAEAAAAAEAABAAAAABAAAEAC8CQAgAAAAAgAAIAAAAAIAACAAAAACAAAgAAAAAgAAIAAAAAIAACAAAAACAAAgAAAAAgAAIAAAAAIAACAAAIAAAAAIAACAAAAACAAAgAAAAAgAAIAAAAAIAACAAAAACAAAgAAAAAgAAIAAAAAIAACAAAAACAAAgAAAAAIAACAAAAACAAAgAAAAAgAAIAAAAAIAACAAAAACAAAgAAAAAgAAIAAAAAIAACAAAAACAAAgAAAAAgAACAAAgAAAAAgAAIAAAAAIAACAAAAACAAAgAAAAAgAAIAAAAAIAACAAAAACAAAgAAAAAgAAIAAAAAIAAAgAAAAAgAAIAAAAAIAAHB4/w9GTW75qalWsQAAAABJRU5ErkJggg==;rotation=0;" vertex="1" parent="1">
          <mxGeometry x="31" y="354" width="163" height="163" as="geometry" />
        </mxCell>
        <mxCell id="3556gvScZ1iog9B0t0vM-22" value="" style="rounded=0;whiteSpace=wrap;html=1;rotation=90;fillColor=#d5e8d4;strokeColor=#82b366;" vertex="1" parent="1">
          <mxGeometry x="339" y="363" width="217.5" height="20" as="geometry" />
        </mxCell>
        <mxCell id="3556gvScZ1iog9B0t0vM-28" value="" style="endArrow=classic;html=1;rounded=0;entryX=0.25;entryY=1;entryDx=0;entryDy=0;" edge="1" parent="1" target="3556gvScZ1iog9B0t0vM-22">
          <mxGeometry width="50" height="50" relative="1" as="geometry">
            <mxPoint x="387" y="309" as="sourcePoint" />
            <mxPoint x="437" y="359" as="targetPoint" />
          </mxGeometry>
        </mxCell>
        <mxCell id="3556gvScZ1iog9B0t0vM-29" value="" style="endArrow=classic;html=1;rounded=0;entryX=0.75;entryY=1;entryDx=0;entryDy=0;" edge="1" parent="1" target="3556gvScZ1iog9B0t0vM-22">
          <mxGeometry width="50" height="50" relative="1" as="geometry">
            <mxPoint x="387" y="434" as="sourcePoint" />
            <mxPoint x="447" y="438" as="targetPoint" />
          </mxGeometry>
        </mxCell>
        <mxCell id="3556gvScZ1iog9B0t0vM-31" value="" style="endArrow=classic;html=1;rounded=0;" edge="1" parent="1">
          <mxGeometry width="50" height="50" relative="1" as="geometry">
            <mxPoint x="457" y="319" as="sourcePoint" />
            <mxPoint x="527" y="329" as="targetPoint" />
          </mxGeometry>
        </mxCell>
        <mxCell id="3556gvScZ1iog9B0t0vM-32" value="" style="endArrow=classic;html=1;rounded=0;" edge="1" parent="1">
          <mxGeometry width="50" height="50" relative="1" as="geometry">
            <mxPoint x="457" y="421" as="sourcePoint" />
            <mxPoint x="527" y="409" as="targetPoint" />
          </mxGeometry>
        </mxCell>
        <mxCell id="3556gvScZ1iog9B0t0vM-33" value="" style="shape=trapezoid;perimeter=trapezoidPerimeter;whiteSpace=wrap;html=1;fixedSize=1;rotation=90;fillColor=#f8cecc;strokeColor=#b85450;" vertex="1" parent="1">
          <mxGeometry x="307" y="402" width="90" height="70" as="geometry" />
        </mxCell>
        <mxCell id="3556gvScZ1iog9B0t0vM-47" value="" style="rounded=0;whiteSpace=wrap;html=1;fillColor=#dae8fc;strokeColor=#6c8ebf;" vertex="1" parent="1">
          <mxGeometry x="31" y="520" width="20" height="20" as="geometry" />
        </mxCell>
        <mxCell id="3556gvScZ1iog9B0t0vM-50" value="&lt;div align=&quot;left&quot;&gt;&lt;font&gt;MERT&lt;/font&gt;&lt;/div&gt;" style="text;html=1;align=left;verticalAlign=middle;whiteSpace=wrap;rounded=0;" vertex="1" parent="1">
          <mxGeometry x="55" y="517.5" width="60" height="30" as="geometry" />
        </mxCell>
        <mxCell id="3556gvScZ1iog9B0t0vM-53" value="" style="rounded=0;whiteSpace=wrap;html=1;fillColor=#f8cecc;strokeColor=#b85450;" vertex="1" parent="1">
          <mxGeometry x="31" y="543" width="20" height="20" as="geometry" />
        </mxCell>
        <mxCell id="3556gvScZ1iog9B0t0vM-55" value="" style="rounded=0;whiteSpace=wrap;html=1;fillColor=#fff2cc;strokeColor=#d6b656;" vertex="1" parent="1">
          <mxGeometry x="31" y="566" width="20" height="20" as="geometry" />
        </mxCell>
        <mxCell id="3556gvScZ1iog9B0t0vM-56" value="&lt;div align=&quot;left&quot;&gt;User Projection Layer&lt;/div&gt;" style="text;html=1;align=left;verticalAlign=middle;whiteSpace=wrap;rounded=0;" vertex="1" parent="1">
          <mxGeometry x="55" y="562.5" width="139" height="30" as="geometry" />
        </mxCell>
        <mxCell id="3556gvScZ1iog9B0t0vM-59" value="&lt;div align=&quot;left&quot;&gt;Music Projection Layer&lt;/div&gt;" style="text;html=1;align=left;verticalAlign=middle;whiteSpace=wrap;rounded=0;" vertex="1" parent="1">
          <mxGeometry x="55" y="540" width="139" height="30" as="geometry" />
        </mxCell>
        <mxCell id="3556gvScZ1iog9B0t0vM-60" value="" style="rounded=0;whiteSpace=wrap;html=1;fillColor=#d5e8d4;strokeColor=#82b366;" vertex="1" parent="1">
          <mxGeometry x="190" y="519.5" width="20" height="20" as="geometry" />
        </mxCell>
        <mxCell id="3556gvScZ1iog9B0t0vM-61" value="&lt;div align=&quot;left&quot;&gt;Shared Linear Layer&lt;br&gt;&lt;/div&gt;" style="text;html=1;align=left;verticalAlign=middle;whiteSpace=wrap;rounded=0;" vertex="1" parent="1">
          <mxGeometry x="214" y="517" width="116" height="30.5" as="geometry" />
        </mxCell>
        <mxCell id="3556gvScZ1iog9B0t0vM-62" value="" style="rounded=0;whiteSpace=wrap;html=1;fillColor=#ffcc99;strokeColor=#36393d;" vertex="1" parent="1">
          <mxGeometry x="190" y="542.5" width="20" height="20" as="geometry" />
        </mxCell>
        <mxCell id="3556gvScZ1iog9B0t0vM-63" value="" style="rounded=0;whiteSpace=wrap;html=1;fillColor=#ffff88;strokeColor=#36393d;" vertex="1" parent="1">
          <mxGeometry x="190" y="565.5" width="20" height="20" as="geometry" />
        </mxCell>
        <mxCell id="3556gvScZ1iog9B0t0vM-64" value="&lt;div align=&quot;left&quot;&gt;User Embeddings&lt;br&gt;&lt;/div&gt;" style="text;html=1;align=left;verticalAlign=middle;whiteSpace=wrap;rounded=0;" vertex="1" parent="1">
          <mxGeometry x="214" y="562.5" width="176" height="30" as="geometry" />
        </mxCell>
        <mxCell id="3556gvScZ1iog9B0t0vM-65" value="&lt;div align=&quot;left&quot;&gt;Latent Space&lt;br&gt;&lt;/div&gt;" style="text;html=1;align=left;verticalAlign=middle;whiteSpace=wrap;rounded=0;" vertex="1" parent="1">
          <mxGeometry x="214" y="537.5" width="139" height="30" as="geometry" />
        </mxCell>
        <mxCell id="3556gvScZ1iog9B0t0vM-66" value="User 0" style="text;html=1;align=center;verticalAlign=middle;whiteSpace=wrap;rounded=0;" vertex="1" parent="1">
          <mxGeometry x="31" y="294" width="60" height="30" as="geometry" />
        </mxCell>
        <mxCell id="3556gvScZ1iog9B0t0vM-67" value="&lt;div&gt;User 1&lt;/div&gt;" style="text;html=1;align=center;verticalAlign=middle;whiteSpace=wrap;rounded=0;" vertex="1" parent="1">
          <mxGeometry x="31" y="274" width="60" height="30" as="geometry" />
        </mxCell>
        <mxCell id="3556gvScZ1iog9B0t0vM-69" value="User N" style="text;html=1;align=center;verticalAlign=middle;whiteSpace=wrap;rounded=0;" vertex="1" parent="1">
          <mxGeometry x="31" y="214" width="60" height="30" as="geometry" />
        </mxCell>
        <mxCell id="3556gvScZ1iog9B0t0vM-70" value="&lt;div align=&quot;left&quot;&gt;...&lt;/div&gt;" style="text;html=1;align=left;verticalAlign=middle;whiteSpace=wrap;rounded=0;" vertex="1" parent="1">
          <mxGeometry x="42" y="234" width="60" height="30" as="geometry" />
        </mxCell>
        <mxCell id="3556gvScZ1iog9B0t0vM-71" value="&lt;b&gt;MERT&lt;/b&gt;" style="text;html=1;align=center;verticalAlign=middle;whiteSpace=wrap;rounded=0;" vertex="1" parent="1">
          <mxGeometry x="222.75" y="422" width="60" height="30" as="geometry" />
        </mxCell>
        <mxCell id="3556gvScZ1iog9B0t0vM-72" value="&lt;div align=&quot;left&quot;&gt;...&lt;/div&gt;" style="text;html=1;align=left;verticalAlign=middle;whiteSpace=wrap;rounded=0;" vertex="1" parent="1">
          <mxGeometry x="42" y="254" width="60" height="30" as="geometry" />
        </mxCell>
        <mxCell id="3556gvScZ1iog9B0t0vM-73" value="&lt;font style=&quot;font-size: 15px;&quot;&gt;&lt;b&gt;&lt;font&gt;AlignerV2&lt;/font&gt;&lt;/b&gt;&lt;/font&gt;" style="text;html=1;align=center;verticalAlign=middle;whiteSpace=wrap;rounded=0;" vertex="1" parent="1">
          <mxGeometry x="270" y="204" width="60" height="30" as="geometry" />
        </mxCell>
      </root>
    </mxGraphModel>
  </diagram>
</mxfile>
